<svg width="251" height="158" viewBox="0 0 251 158" fill="none" xmlns="http://www.w3.org/2000/svg">
<g clip-path="url(#clip0)">
<path d="M101.296 86.4664C100.941 85.2348 100.429 84.0515 99.7722 82.9441C98.4666 80.7515 96.5985 78.9274 94.3512 77.6509C93.2161 77.0084 92.0017 76.5092 90.7373 76.1653C88.095 75.4527 85.3038 75.4527 82.6614 76.1653C81.4008 76.5106 80.1899 77.0097 79.0576 77.6509C77.9493 78.2862 76.9312 79.0602 76.0292 79.9532C74.1783 81.7646 72.8395 84.0117 72.1426 86.4762C71.4264 89.0534 71.4264 91.7699 72.1426 94.3472C72.4901 95.5751 73.0026 96.7528 73.667 97.8497C74.985 100.022 76.8466 101.833 79.0778 103.113C81.3929 104.429 84.0246 105.122 86.7044 105.122C89.3842 105.122 92.016 104.429 94.331 103.113C95.4348 102.472 96.4522 101.698 97.3595 100.811C98.2747 99.9311 99.0687 98.939 99.7217 97.8596C100.381 96.7602 100.893 95.5831 101.246 94.357C101.977 91.7817 101.977 89.0613 101.246 86.4861" fill="url(#paint0_linear)"/>
<path d="M134.56 73.6669C134.276 72.6795 133.866 71.7308 133.339 70.8432C132.294 69.0862 130.798 67.6248 128.998 66.6027C128.087 66.0912 127.114 65.6945 126.101 65.4221C124 64.8593 121.782 64.8593 119.68 65.4221C118.671 65.6953 117.701 66.092 116.793 66.6027C115.9 67.1092 115.079 67.7278 114.35 68.4426C113.62 69.1586 112.986 69.9619 112.463 70.8334C111.931 71.7189 111.521 72.6681 111.241 73.6571C110.672 75.7094 110.672 77.872 111.241 79.9243C111.519 80.9076 111.93 81.8505 112.463 82.7283C113.517 84.4665 115.007 85.9154 116.793 86.9393C118.646 87.992 120.751 88.5468 122.896 88.5468C125.04 88.5468 127.146 87.992 128.998 86.9393C129.892 86.4287 130.716 85.8105 131.451 85.0995C132.183 84.3921 132.818 83.5951 133.339 82.7283C133.867 81.8485 134.278 80.9061 134.56 79.9243C135.14 77.8734 135.14 75.708 134.56 73.6571" fill="url(#paint1_linear)"/>
<path d="M164.017 80.6028C163.806 79.8636 163.5 79.1531 163.109 78.4874C162.326 77.1718 161.206 76.0768 159.858 75.3096C159.177 74.9227 158.447 74.6218 157.688 74.4142C156.112 73.9921 154.448 73.9921 152.873 74.4142C152.117 74.6226 151.391 74.9234 150.712 75.3096C150.04 75.6878 149.423 76.1509 148.875 76.687C148.327 77.2261 147.852 77.8312 147.462 78.4874C146.855 79.5089 146.463 80.6375 146.307 81.8079C146.151 82.9782 146.235 84.1671 146.553 85.3056C146.759 86.0438 147.064 86.7519 147.462 87.4111C148.253 88.7158 149.371 89.8027 150.712 90.5694C152.102 91.3594 153.682 91.7757 155.29 91.7757C156.899 91.7757 158.479 91.3594 159.868 90.5694C160.538 90.1871 161.155 89.7243 161.706 89.1919C162.254 88.6606 162.729 88.062 163.119 87.4111C163.512 86.7498 163.818 86.0423 164.027 85.3056C164.462 83.7667 164.462 82.1417 164.027 80.6028" fill="url(#paint2_linear)"/>
<path d="M182.914 98.4906C182.773 97.9989 182.57 97.5262 182.308 97.0837C182.051 96.6451 181.735 96.2415 181.37 95.8834C181.005 95.5281 180.594 95.2205 180.148 94.9684C179.695 94.7122 179.21 94.5137 178.705 94.378C177.654 94.0966 176.545 94.0966 175.494 94.378C174.989 94.514 174.504 94.7123 174.051 94.9684C173.604 95.2201 173.194 95.5277 172.829 95.8834C172.462 96.2428 172.143 96.6461 171.88 97.0837C171.477 97.7649 171.215 98.5173 171.111 99.2974C171.008 100.078 171.063 100.87 171.275 101.629C171.413 102.119 171.616 102.589 171.88 103.026C172.407 103.895 173.15 104.619 174.041 105.132C174.962 105.65 176.006 105.923 177.069 105.923C178.132 105.923 179.177 105.65 180.098 105.132C180.543 104.875 180.953 104.564 181.319 104.207C181.684 103.852 182 103.452 182.258 103.016C182.52 102.578 182.723 102.108 182.864 101.619C183.154 100.592 183.154 99.5078 182.864 98.4808" fill="url(#paint3_linear)"/>
<path d="M9.76758 113.592H40.8394V123.588H21.3059V132.571H36.0343V142.193H21.3059V156.744H9.76758V113.592Z" fill="#454646"/>
<path d="M92.0603 129.147C91.5103 127.238 90.7167 125.404 89.6981 123.687C87.6735 120.284 84.7757 117.453 81.2891 115.472C79.5297 114.475 77.647 113.701 75.6865 113.169C71.6102 112.074 67.3058 112.074 63.2295 113.169C61.2727 113.703 59.3935 114.476 57.637 115.472C55.9046 116.454 54.3128 117.655 52.9025 119.043C51.4843 120.434 50.2529 121.994 49.2381 123.687C48.2112 125.4 47.4171 127.235 46.8759 129.147C45.7731 133.126 45.7731 137.319 46.8759 141.298C47.4135 143.202 48.2078 145.029 49.2381 146.729C51.2836 150.1 54.1734 152.91 57.637 154.895C61.2261 156.937 65.3073 158.013 69.463 158.013C73.6188 158.013 77.7 156.937 81.2891 154.895C83.0177 153.903 84.6117 152.703 86.0337 151.324C87.4547 149.954 88.6866 148.409 89.6981 146.729C90.7202 145.024 91.514 143.199 92.0603 141.298C93.1822 137.322 93.1822 133.124 92.0603 129.147Z" fill="#454646"/>
<path d="M125.02 155.642L125.605 156.715H138.557L137.548 154.796C137.548 154.796 137.154 154.107 137.013 153.812L129.351 139.753C130.427 139.151 131.423 138.425 132.318 137.588C134.139 135.9 135.476 133.776 136.195 131.429C136.569 130.206 136.756 128.937 136.75 127.661C136.761 125.776 136.369 123.91 135.599 122.181C134.857 120.501 133.787 118.977 132.45 117.694C131.099 116.402 129.51 115.37 127.766 114.654C125.946 113.901 123.988 113.52 122.012 113.533H101.408V156.685H112.947V142.399H117.772L125.02 155.642ZM112.906 122.456H117.025C117.604 122.456 118.135 122.456 118.62 122.456L120.185 122.555C120.838 122.645 121.466 122.863 122.032 123.194C122.58 123.515 123.065 123.928 123.465 124.414C123.862 124.893 124.175 125.431 124.394 126.008C124.609 126.565 124.722 127.154 124.727 127.749C124.727 128.368 124.624 128.983 124.424 129.57C124.232 130.146 123.938 130.685 123.556 131.163C123.171 131.644 122.695 132.048 122.153 132.354C121.597 132.695 120.975 132.919 120.326 133.013L119.397 133.102C119.121 133.102 118.805 133.102 118.448 133.102H112.967L112.906 122.456Z" fill="#454646"/>
<path d="M241.13 155.643C241.126 155.62 241.126 155.597 241.13 155.574V155.436C240.309 147.473 239.474 139.56 238.626 131.695C237.953 125.681 237.314 119.633 236.708 113.553H224.009L223.666 114.655L222.212 119.338L220.193 125.763L215.459 141.042L207.383 114.655L207.039 113.553H194.673L189.979 155.475L189.838 156.754H201.013L201.164 155.475L203.759 133.073L210.421 155.643L210.744 156.745H220.264L220.597 155.613L227.33 133.014L229.924 155.475L230.056 156.754H241.231L241.119 155.692" fill="#454646"/>
<path d="M164.198 157.61C161.81 157.616 159.432 157.302 157.132 156.675C154.907 156.07 152.842 155.006 151.075 153.556C149.248 152.012 147.814 150.076 146.886 147.899C145.791 145.233 145.266 142.378 145.341 139.507V113.602H153.124V139.586C153.07 141.307 153.376 143.021 154.023 144.623C154.548 145.859 155.36 146.96 156.395 147.84C157.414 148.672 158.606 149.279 159.888 149.621C162.729 150.381 165.728 150.381 168.569 149.621C169.851 149.278 171.042 148.671 172.062 147.84C173.097 146.961 173.909 145.859 174.434 144.623C175.081 143.02 175.386 141.307 175.333 139.586V113.602H183.116V139.467C183.192 142.338 182.666 145.194 181.571 147.86C180.641 150.033 179.208 151.966 177.382 153.507C175.615 154.957 173.55 156.021 171.325 156.626C169.025 157.252 166.647 157.567 164.259 157.561L164.198 157.61Z" fill="#454646"/>
</g>
<defs>
<linearGradient id="paint0_linear" x1="74.2489" y1="105.122" x2="91.7107" y2="74.075" gradientUnits="userSpaceOnUse">
<stop stop-color="#888888"/>
<stop offset="1" stop-color="#EBEBEB"/>
</linearGradient>
<linearGradient id="paint1_linear" x1="130.821" y1="65" x2="119.11" y2="89.8839" gradientUnits="userSpaceOnUse">
<stop stop-color="#D6F228"/>
<stop offset="1" stop-color="#68A407"/>
</linearGradient>
<linearGradient id="paint2_linear" x1="149.344" y1="89.5093" x2="161.189" y2="76.2067" gradientUnits="userSpaceOnUse">
<stop stop-color="#FEC431"/>
<stop offset="1" stop-color="#F2F53B"/>
</linearGradient>
<linearGradient id="paint3_linear" x1="171.985" y1="105.923" x2="181.775" y2="93.9918" gradientUnits="userSpaceOnUse">
<stop stop-color="#F52740"/>
<stop offset="1" stop-color="#FF8EB0"/>
</linearGradient>
<clipPath id="clip0">
<rect width="251" height="158" fill="white"/>
</clipPath>
</defs>
</svg>
